<svg width="27" height="27" viewBox="0 0 27 27" fill="none" xmlns="http://www.w3.org/2000/svg">
<g filter="url(#filter0_d_46_4)">
<path d="M15.7096 9.78236L20 7.00629L6 2L11.0062 16L13.7824 11.7096L16.7879 14.7152C17.3201 15.2474 18.183 15.2474 18.7152 14.7152C19.2474 14.183 19.2474 13.3201 18.7152 12.7879L15.7096 9.78236Z" fill="black"/>
<path d="M16.5005 9.86615L20.2716 7.42607L21.1213 6.87626L20.1684 6.53548L6.16836 1.5292L5.17342 1.17341L5.5292 2.16835L10.5354 16.1684L10.8762 17.1213L11.426 16.2716L13.8661 12.5005L16.4344 15.0688C17.1618 15.7962 18.3413 15.7962 19.0687 15.0688L19.0688 15.0687C19.7962 14.3413 19.7962 13.1619 19.0688 12.4344L19.0688 12.4344L16.5005 9.86615Z" stroke="white"/>
</g>
<defs>
<filter id="filter0_d_46_4" x="0.346832" y="0.346802" width="25.8958" height="25.8959" filterUnits="userSpaceOnUse" color-interpolation-filters="sRGB">
<feFlood flood-opacity="0" result="BackgroundImageFix"/>
<feColorMatrix in="SourceAlpha" type="matrix" values="0 0 0 0 0 0 0 0 0 0 0 0 0 0 0 0 0 0 127 0" result="hardAlpha"/>
<feOffset dy="4"/>
<feGaussianBlur stdDeviation="2"/>
<feColorMatrix type="matrix" values="0 0 0 0 0 0 0 0 0 0 0 0 0 0 0 0 0 0 0.25 0"/>
<feBlend mode="normal" in2="BackgroundImageFix" result="effect1_dropShadow_46_4"/>
<feBlend mode="normal" in="SourceGraphic" in2="effect1_dropShadow_46_4" result="shape"/>
</filter>
</defs>
</svg>
